<svg width="821" height="491" viewBox="0 0 821 491" fill="none" xmlns="http://www.w3.org/2000/svg">
<path d="M58 423.5L0 490.5H821L792.5 445.5H769L651.5 350.5L605 348V191H666.5V173.5H605V121.5H588V173.5H526.5V191H588V342.5C456.8 272.9 445 262.5 421.5 266V94H504.5V71H421.5V0H398.5V71H314.5V94H398.5V262.259C399.441 262.437 399.164 262.5 398.5 262.5V262.259C397.077 261.991 392.869 261.463 383 260.5C366.6 258.9 323.167 292.5 303.5 309.5L234 322.5V191H294.5V173.5H234V122H216.5V173.5H155.5V191H216.5V346L210.5 354H177.5L147.5 387.5C147.833 387.667 139.3 395.1 102.5 423.5H58Z" fill="#F2F2F2"/>
</svg>
